<svg xmlns="http://www.w3.org/2000/svg" width="24" height="21" viewBox="0 0 24 21">
    <g fill="none" fill-rule="evenodd">
        <g fill="#FFFE22">
            <path d="M1.709.281C.569.491 0 .737 0 1.021s.701.815 2.104 1.593l3.712.187 2.237-.187 1.629-.68.318-.487-.59-.572L8.052.281 6.233 0H4.06L2.507.281h-.798z" transform="translate(.89 .802)"/>
            <path d="M0 2.801v1.143C1.965 5.34 3.924 5.852 5.877 5.482 7.83 5.11 9.04 4.8 9.509 4.549l.398-.605.093-.54-.093-.79-2.904.473H2.115L.49 2.801l-.308-.187H0V2.8zM0 7.82v1.125c.199.384.622.675 1.27.872.648.197 2.199.4 4.651.612h.883l2.015-.612 1.057-.523.124-.35V7.82l-.124-.314-1.49.314-2.903.374-3.1-.17L.607 7.82l-.47-.314L0 7.82zM14.419 10.179L13.105 10.791 12.544 11.061 12.376 11.745 13.819 12.655 19.609 12.97 20.824 12.655 22.04 11.937 22.444 11.333 22.04 11.061 21.08 10.347 19.849 10.118 18.126 9.698 16.549 9.874 15.226 9.874z" transform="translate(.89 .802)"/>
        </g>
        <path fill="#000" d="M5.82 1.083c-3.27 0-4.75.895-4.75 1.166 0 .272 1.48 1.167 4.75 1.167 3.267 0 4.747-.895 4.747-1.167 0-.271-1.48-1.166-4.748-1.166m0 3.415C3.016 4.498 0 3.795 0 2.25 0 .704 3.016 0 5.82 0c2.802 0 5.818.704 5.818 2.25 0 1.545-3.016 2.248-5.819 2.248"/>
        <path fill="#000" d="M5.82 6.897c-2.893 0-5.82-.825-5.82-2.4V2.365c0-.3.24-.541.535-.541.296 0 .536.242.536.541v2.134c0 .393 1.616 1.316 4.748 1.316 3.133 0 4.748-.923 4.748-1.316V2.364c0-.3.24-.541.535-.541.297 0 .536.242.536.541v2.134c0 1.574-2.927 2.399-5.819 2.399"/>
        <path fill="#000" d="M5.82 9.521C3.015 9.521 0 8.817 0 7.272c0-.299.24-.542.535-.542.296 0 .536.243.536.542 0 .272 1.48 1.166 4.748 1.166 3.268 0 4.748-.894 4.748-1.166 0-.299.24-.542.535-.542.297 0 .536.243.536.542 0 1.545-3.016 2.25-5.819 2.25"/>
        <path fill="#000" d="M5.82 11.92C3.015 11.92 0 11.183 0 9.57V7.494c0-.3.24-.542.535-.542.296 0 .536.243.536.542V9.57c0 .368 1.664 1.267 4.748 1.267 3.084 0 4.748-.899 4.748-1.267V7.494c0-.3.24-.542.535-.542.297 0 .536.243.536.542V9.57c0 1.614-3.016 2.35-5.819 2.35"/>
        <path fill="#FFFE22" d="M13.265 13.456v1.394c.459.529.761.794.906.794.146 0 1.059.14 2.74.42h3.607l1.26-.42 1.555-.382v-1.886h-.89l-2.482.61h-3.05l-3.24-.61-.406.08z"/>
        <path fill="#000" d="M18.181 11.123c-3.268 0-4.748.895-4.748 1.167 0 .271 1.48 1.166 4.748 1.166 3.268 0 4.748-.895 4.748-1.166 0-.272-1.48-1.167-4.748-1.167m0 3.415c-2.803 0-5.819-.703-5.819-2.248 0-1.546 3.016-2.25 5.82-2.25 2.802 0 5.818.704 5.818 2.25 0 1.545-3.016 2.248-5.819 2.248"/>
        <path fill="#000" d="M18.181 16.937c-2.892 0-5.819-.824-5.819-2.398v-2.134c0-.3.24-.542.535-.542.296 0 .536.242.536.542v2.134c0 .393 1.615 1.316 4.748 1.316s4.748-.923 4.748-1.316v-2.134c0-.3.24-.542.535-.542.296 0 .536.242.536.542v2.134c0 1.574-2.927 2.398-5.819 2.398"/>
        <path fill="#FFFE22" d="M12.98 15.79l.285 1.275c1.699.78 2.895 1.17 3.59 1.17h2.51c2.106-.203 3.294-.421 3.564-.655.27-.233.404-.573.404-1.019v-.772l-.22-.418h-.884l-2.267.599-5.27-.18-1.26-.419h-.452v.26"/>
        <path fill="#000" d="M12.362 14.312c0-.299.24-.541.535-.541.296 0 .536.242.536.541 0 .272 1.48 1.167 4.748 1.167 3.268 0 4.748-.895 4.748-1.167 0-.299.24-.541.535-.541.296 0 .536.242.536.541 0 1.546-3.016 2.25-5.819 2.25s-5.819-.704-5.819-2.25z"/>
        <path fill="#FFFE22" d="M.74 5.71v1.363c1.2.834 2.347 1.25 3.44 1.25h4.055l1.436-.315.977-.608.241-.854-.139-1.17-1.71.582-3.225.413-2.3-.256-2.23-.406-.545-.125"/>
        <path fill="#000" d="M18.181 18.96c-2.803 0-5.819-.735-5.819-2.35v-2.075c0-.3.24-.542.535-.542.296 0 .536.242.536.542v2.076c0 .368 1.664 1.266 4.748 1.266 3.084 0 4.748-.898 4.748-1.266v-2.076c0-.3.24-.542.535-.542.296 0 .536.242.536.542v2.076c0 1.614-3.016 2.349-5.819 2.349"/>
        <path fill="#FFFE22" d="M12.98 17.79l.285 1.275c1.699.78 2.895 1.17 3.59 1.17h2.51c2.106-.203 3.294-.421 3.564-.655.27-.233.404-.573.404-1.019v-.772l-.22-.418h-.884l-2.267.599-5.27-.18-1.26-.419h-.452v.26"/>
        <path fill="#000" d="M18.181 18.561c-2.803 0-5.819-.703-5.819-2.249 0-.299.24-.541.535-.541.296 0 .536.242.536.541 0 .272 1.48 1.167 4.748 1.167 3.268 0 4.748-.895 4.748-1.167 0-.299.24-.541.535-.541.296 0 .536.242.536.541 0 1.546-3.016 2.25-5.819 2.25"/>
        <path fill="#000" d="M18.181 20.96c-2.803 0-5.819-.735-5.819-2.35v-2.075c0-.3.24-.542.535-.542.296 0 .536.242.536.542v2.076c0 .368 1.664 1.266 4.748 1.266 3.084 0 4.748-.898 4.748-1.266v-2.076c0-.3.24-.542.535-.542.296 0 .536.242.536.542v2.076c0 1.614-3.016 2.349-5.819 2.349M5.82 6.771C3.015 6.771 0 6.067 0 4.521c0-.298.24-.54.535-.54.296 0 .536.242.536.54 0 .273 1.48 1.167 4.748 1.167 3.268 0 4.748-.894 4.748-1.166 0-.299.24-.542.535-.542.297 0 .536.243.536.542 0 1.545-3.016 2.25-5.819 2.25"/>
        <path fill="#000" d="M5.82 9.17C2.926 9.17 0 8.354 0 6.795V4.69c0-.3.24-.543.535-.543.296 0 .536.243.536.543v2.105c0 .386 1.616 1.29 4.748 1.29 3.133 0 4.748-.904 4.748-1.29V4.69c0-.3.24-.543.535-.543.297 0 .536.243.536.543v2.105c0 1.559-2.927 2.373-5.819 2.373"/>
        <path fill="#FFFE22" d="M.74 10.71v1.363c1.2.834 2.347 1.25 3.44 1.25h4.055l1.436-.315.977-.608.241-.854-.139-1.17-1.71.582-3.225.413-2.3-.256-2.23-.406-.545-.125"/>
        <path fill="#000" d="M5.82 12.021c-2.804 0-5.82-.704-5.82-2.25 0-.298.24-.54.535-.54.296 0 .536.242.536.54 0 .273 1.48 1.168 4.748 1.168 3.268 0 4.748-.895 4.748-1.167 0-.3.24-.542.535-.542.297 0 .536.243.536.542 0 1.545-3.016 2.25-5.819 2.25"/>
        <path fill="#000" d="M5.82 14.42c-2.893 0-5.82-.83-5.82-2.412V9.86c0-.299.24-.541.535-.541.296 0 .536.242.536.541v2.148c0 .398 1.616 1.33 4.748 1.33 3.133 0 4.748-.932 4.748-1.33V9.86c0-.299.24-.541.535-.541.297 0 .536.242.536.541v2.148c0 1.583-2.927 2.412-5.819 2.412"/>
        <path fill="#FFFE22" d="M.74 12.71v1.363c1.2.834 2.347 1.25 3.44 1.25h4.055l1.436-.315.977-.608.241-.854-.139-1.17-1.71.582-3.225.413-2.3-.256-2.23-.406-.545-.125"/>
        <path fill="#000" d="M5.82 14.021c-2.804 0-5.82-.704-5.82-2.25 0-.298.24-.54.535-.54.296 0 .536.242.536.54 0 .273 1.48 1.168 4.748 1.168 3.268 0 4.748-.895 4.748-1.167 0-.3.24-.542.535-.542.297 0 .536.243.536.542 0 1.545-3.016 2.25-5.819 2.25"/>
        <path fill="#000" d="M5.82 16.42c-2.893 0-5.82-.83-5.82-2.412V11.86c0-.299.24-.541.535-.541.296 0 .536.242.536.541v2.148c0 .398 1.616 1.33 4.748 1.33 3.133 0 4.748-.932 4.748-1.33V11.86c0-.299.24-.541.535-.541.297 0 .536.242.536.541v2.148c0 1.583-2.927 2.412-5.819 2.412"/>
        <path fill="#FFFE22" d="M.74 14.71v1.363c1.2.834 2.347 1.25 3.44 1.25h4.055l1.436-.315.977-.608.241-.854-.139-1.17-1.71.582-3.225.413-2.3-.256-2.23-.406-.545-.125"/>
        <path fill="#000" d="M5.82 16.021c-2.804 0-5.82-.704-5.82-2.25 0-.298.24-.54.535-.54.296 0 .536.242.536.54 0 .273 1.48 1.168 4.748 1.168 3.268 0 4.748-.895 4.748-1.167 0-.3.24-.542.535-.542.297 0 .536.243.536.542 0 1.545-3.016 2.25-5.819 2.25"/>
        <path fill="#000" d="M5.82 18.42c-2.893 0-5.82-.83-5.82-2.412V13.86c0-.299.24-.541.535-.541.296 0 .536.242.536.541v2.148c0 .398 1.616 1.33 4.748 1.33 3.133 0 4.748-.932 4.748-1.33V13.86c0-.299.24-.541.535-.541.297 0 .536.242.536.541v2.148c0 1.583-2.927 2.412-5.819 2.412"/>
        <path d="M15.265 14.626L15.265 15.85"/>
    </g>
</svg>
