<svg xmlns="http://www.w3.org/2000/svg" xmlns:xlink="http://www.w3.org/1999/xlink" width="48" height="53" viewBox="0 0 48 53">
    <defs>
        <path id="prefix__a" d="M22.122 1.51l-6.195 12.379-13.688 2.066c-.449.068-.863.279-1.182.602l-.187.217c-.62.827-.549 2.007.209 2.753l9.859 9.713L8.673 42.9c-.074.448-.001.908.208 1.311l.136.227c.591.86 1.745 1.163 2.695.67L24 38.734l12.288 6.374c.403.21.863.282 1.31.208l.258-.06c1-.297 1.646-1.3 1.47-2.356L37.06 29.24l9.861-9.713c.324-.319.535-.733.603-1.182l.023-.263c.026-1.044-.728-1.967-1.786-2.127l-13.69-2.066-6.193-12.38c-.203-.406-.532-.735-.938-.938-1.038-.52-2.3-.099-2.818.938zM24 5.574l5.213 10.422.141.245c.362.546.94.92 1.597 1.018l11.52 1.736-8.298 8.18-.189.21c-.408.513-.584 1.178-.475 1.834l1.906 11.49-10.34-5.362-.259-.115c-.614-.23-1.301-.191-1.89.115L12.582 40.71l1.908-11.49.03-.281c.028-.655-.221-1.297-.694-1.763l-8.3-8.18 11.522-1.736c.75-.113 1.399-.584 1.738-1.263L24 5.575z"/>
    </defs>
    <g fill="none" fill-rule="evenodd">
        <g transform="translate(0 7)">
            <use fill="#00A857" fill-rule="nonzero" xlink:href="#prefix__a"/>
        </g>
        <path fill="#00A857" d="M9.958 10.125H8.542V8.708c0-.39-.318-.708-.709-.708-.39 0-.708.317-.708.708v1.417H5.708c-.39 0-.708.317-.708.708 0 .391.317.709.708.709h1.417v1.416c0 .391.317.709.708.709.391 0 .709-.318.709-.709v-1.416h1.416c.391 0 .709-.318.709-.709 0-.39-.318-.708-.709-.708M17.958 2.125h-1.416V.708c0-.39-.318-.708-.709-.708-.39 0-.708.317-.708.708v1.417h-1.417c-.39 0-.708.317-.708.708 0 .391.317.709.708.709h1.417v1.416c0 .391.317.709.708.709.391 0 .709-.318.709-.709V3.542h1.416c.391 0 .709-.318.709-.709 0-.39-.318-.708-.709-.708M40.958 13.125h-1.416v-1.417c0-.39-.318-.708-.709-.708-.39 0-.708.317-.708.708v1.417h-1.417c-.39 0-.708.317-.708.708 0 .391.317.709.708.709h1.417v1.416c0 .391.317.709.708.709.391 0 .709-.318.709-.709v-1.416h1.416c.391 0 .709-.318.709-.709 0-.39-.318-.708-.709-.708"/>
    </g>
</svg>
