<svg xmlns="http://www.w3.org/2000/svg" width="50" height="54" viewBox="0 0 50 54">
    <path fill="#00A857" fill-rule="evenodd" d="M13.792 19.792c4.694 0 8.5 3.805 8.5 8.5 0 4.457-3.434 8.107-7.8 8.464l.005.018.003.018v5.881c.131-.17.27-.337.428-.495.904-.9 2.032-1.347 2.995-1.584.89-.218 1.655-.256 2.029-.26h.085l.158.001c.367.016.662.311.678.679l.002.095v.062c0 .333-.025 1.15-.26 2.115-.237.962-.684 2.09-1.584 2.995-.905.9-2.033 1.347-2.995 1.583-.51.125-.978.19-1.355.224l-.181.015.001 1.397.001.042v2.224c0 1.174-.951 2.125-2.125 2.125H8.073c-.392 0-.709-.317-.709-.708 0-.391.317-.709.709-.709h4.304c.392 0 .709-.317.709-.708v-1.475l-.003-.041v-2.147c-.403-.029-.94-.093-1.535-.239-.963-.236-2.09-.683-2.995-1.583-.9-.905-1.347-2.033-1.584-2.995-.236-.966-.26-1.782-.26-2.115l.001-.158c.016-.367.311-.662.678-.678l.095-.001h.063c.332 0 1.15.024 2.115.26.962.237 2.09.684 2.995 1.584.104.106.201.215.293.327l.134.169v-5.882c0-.013.007-.024.007-.036-4.365-.357-7.798-4.007-7.798-8.464 0-4.695 3.805-8.5 8.5-8.5zM32.917 5.625c4.694 0 8.5 3.806 8.5 8.5 0 4.368-3.296 7.96-7.536 8.44l-.256.025v5.917c.132-.17.27-.336.429-.495.903-.901 2.031-1.347 2.994-1.585.965-.235 1.782-.26 2.114-.26.094 0 .149.002.158.002.368.015.663.311.678.678l.002.096v.062c0 .333-.025 1.15-.26 2.114-.237.963-.684 2.091-1.584 2.995-.904.9-2.032 1.347-2.995 1.584-.51.124-.977.19-1.355.224l-.181.014v8.738c.132-.17.27-.337.429-.495.903-.901 2.031-1.348 2.994-1.585.965-.235 1.782-.26 2.114-.26.094 0 .149.001.158.002.368.015.663.311.678.678l.002.095v.063c0 .332-.025 1.149-.26 2.114-.237.963-.684 2.09-1.584 2.995-.904.9-2.032 1.347-2.995 1.584-.51.124-.977.19-1.355.224l-.181.014v1.337c.005.033.007.067.007.102v2.224c0 1.174-.95 2.125-2.125 2.125h-4.304c-.391 0-.709-.317-.709-.708 0-.391.318-.709.709-.709h4.304c.392 0 .709-.317.709-.708v-.706l-.001-.005-.007-.097v-2.855c-.403-.028-.94-.093-1.535-.238-.963-.237-2.09-.684-2.994-1.584-.901-.904-1.348-2.032-1.585-2.995-.235-.965-.26-1.782-.26-2.114 0-.094.001-.149.002-.158.016-.368.31-.663.678-.678.01 0 .064-.003.158-.003.332.001 1.149.026 2.114.261.963.237 2.09.684 2.994 1.585.106.105.203.215.294.326l.134.169v-8.738c-.403-.028-.94-.093-1.535-.238-.963-.237-2.09-.684-2.994-1.584-.901-.904-1.348-2.032-1.585-2.994-.235-.966-.26-1.782-.26-2.115 0-.094.001-.148.002-.158.016-.367.31-.663.678-.678.01 0 .064-.002.158-.002.332 0 1.149.025 2.114.26.963.238 2.09.684 2.994 1.585.106.106.203.215.294.326l.134.169V22.59c-4.362-.362-7.79-4.01-7.791-8.465 0-4.694 3.806-8.5 8.5-8.5zm5.637 36.154c-.325.03-.733.084-1.17.191-.809.197-1.691.568-2.329 1.21-.642.638-1.014 1.52-1.21 2.33-.107.436-.162.844-.19 1.17.325-.029.733-.084 1.17-.191.808-.196 1.691-.569 2.329-1.21.642-.638 1.014-1.52 1.21-2.33.107-.436.162-.844.19-1.17zm-11.274 0c.028.326.083.734.19 1.17.197.81.568 1.692 1.21 2.33.638.642 1.52 1.014 2.33 1.21.436.107.844.161 1.17.19-.029-.325-.084-.733-.191-1.17-.196-.809-.568-1.691-1.21-2.329-.638-.642-1.52-1.014-2.33-1.21-.436-.107-.844-.162-1.17-.191zm-7.851 0c-.325.03-.733.084-1.17.191-.809.196-1.691.568-2.329 1.21-.642.638-1.014 1.52-1.21 2.33-.107.436-.162.844-.19 1.169.324-.029.732-.083 1.17-.191.808-.196 1.69-.568 2.328-1.21.642-.637 1.015-1.52 1.21-2.329.108-.437.162-.845.19-1.17zm-11.274 0c.028.325.083.733.19 1.17.196.81.568 1.692 1.21 2.33.638.641 1.52 1.013 2.33 1.209.436.108.844.162 1.169.19-.029-.324-.083-.732-.191-1.169-.195-.809-.568-1.691-1.21-2.329-.637-.642-1.52-1.014-2.329-1.21-.437-.107-.845-.162-1.17-.191zm5.637-20.57c-1.959 0-3.725.791-5.009 2.074-1.283 1.284-2.075 3.05-2.075 5.009 0 1.958.792 3.724 2.075 5.008 1.284 1.283 3.05 2.075 5.009 2.075 1.958 0 3.724-.792 5.008-2.075 1.283-1.284 2.075-3.05 2.075-5.008 0-1.959-.792-3.725-2.075-5.009-1.284-1.283-3.05-2.075-5.008-2.075zm.09 2.819c.157-.003.325.058.438.178.092.095.144.22.16.347l.006.096v.388c.233.04.46.097.677.187.212.089.408.202.587.339l.173.144.012.01c.155.126.255.321.25.522.002.109-.025.218-.076.314l-.059.091c-.086.12-.24.212-.4.209-.12-.002-.223-.038-.324-.092l-.101-.06-.008-.004-.008-.007c-.23-.177-.444-.303-.64-.383-.184-.076-.412-.117-.688-.117-.354 0-.605.08-.782.219-.175.142-.25.293-.253.544.002.16.041.251.122.335.078.077.17.142.279.195l.116.049.116.04c.125.041.278.085.458.13l.189.047c.423.104.767.21 1.04.322.29.119.543.303.748.545.228.267.332.62.331 1.023.004.507-.19.964-.556 1.31-.27.259-.609.435-.996.539l-.198.046v.4c.002.16-.052.325-.167.443-.112.121-.28.181-.438.18-.158.001-.326-.059-.438-.18-.093-.095-.145-.22-.162-.347l-.005-.096v-.373c-.28-.038-.553-.096-.816-.188-.266-.093-.506-.217-.716-.37l-.153-.12-.002-.003-.013-.009c-.158-.125-.252-.327-.247-.527-.001-.144.042-.292.131-.41.085-.118.241-.207.398-.203.118.002.22.037.322.091l.101.06.003.002c.514.347 1.012.51 1.512.51.387 0 .656-.08.826-.206.166-.13.238-.272.243-.523-.002-.135-.034-.205-.106-.276-.094-.09-.216-.165-.373-.223-.136-.05-.322-.107-.553-.167l-.182-.046c-.433-.11-.788-.22-1.07-.334-.304-.122-.568-.316-.782-.572-.234-.28-.344-.646-.342-1.06-.003-.519.197-.988.573-1.348.28-.27.63-.452 1.032-.556l.205-.045v-.389c-.001-.159.051-.324.167-.443.112-.12.28-.181.438-.178zm24.672 3.584c-.325.03-.733.085-1.17.192-.809.196-1.691.568-2.329 1.21-.642.637-1.014 1.52-1.21 2.328-.107.438-.162.846-.19 1.17.325-.028.733-.083 1.17-.19.808-.196 1.691-.569 2.329-1.21.642-.637 1.014-1.52 1.21-2.329.107-.437.162-.845.19-1.17zm-11.274 0c.028.326.083.734.19 1.171.197.808.568 1.692 1.21 2.33.638.641 1.52 1.013 2.33 1.21.436.106.844.16 1.17.19-.029-.325-.084-.733-.191-1.17-.196-.81-.568-1.692-1.21-2.33-.638-.641-1.52-1.013-2.33-1.21-.436-.106-.844-.162-1.17-.19zM47.083 20.5c.391 0 .709.317.709.708v1.417h1.416c.391 0 .709.317.709.708 0 .391-.318.709-.709.709h-1.416v1.416c0 .391-.318.709-.709.709-.39 0-.708-.318-.708-.709v-1.416h-1.417c-.39 0-.708-.318-.708-.709 0-.39.317-.708.708-.708h1.417v-1.417c0-.39.317-.708.708-.708zM32.917 7.042c-1.958 0-3.725.792-5.009 2.074-1.283 1.285-2.074 3.051-2.075 5.009.001 1.959.792 3.725 2.075 5.01 1.284 1.282 3.05 2.073 5.009 2.073 1.958 0 3.725-.79 5.009-2.074C39.209 17.85 40 16.084 40 14.125c0-1.958-.791-3.724-2.074-5.009-1.284-1.282-3.05-2.074-5.01-2.074zm.09 2.819c.157-.002.325.058.438.178.092.096.145.22.16.348l.006.096v.387c.233.04.46.097.677.188.212.089.408.202.587.338l.173.144.006.005.007.005c.154.126.254.322.25.522.001.11-.025.219-.077.315l-.059.091-.06.068c-.088.084-.213.143-.34.14-.119-.002-.222-.037-.324-.091l-.1-.06-.009-.005c-.238-.183-.452-.31-.648-.39-.184-.075-.412-.117-.688-.117-.354 0-.605.081-.782.22-.175.14-.249.293-.253.543.002.16.042.252.123.335.077.077.168.142.278.196l.116.049.116.04c.125.04.279.085.458.13l.189.046c.423.105.768.21 1.04.323.29.119.543.303.748.544.23.267.333.622.332 1.023.003.507-.191.964-.557 1.31-.27.26-.608.435-.996.54l-.198.046v.4c.002.16-.051.324-.167.443-.112.12-.28.181-.438.178-.158.003-.326-.057-.438-.178-.093-.095-.145-.22-.162-.348l-.005-.095v-.373c-.28-.039-.553-.096-.816-.188-.266-.094-.505-.217-.716-.37l-.152-.12-.003-.003-.013-.01c-.158-.125-.251-.326-.247-.526 0-.145.042-.293.132-.41.085-.118.24-.207.397-.204.118.002.222.038.323.092l.101.06c.517.348 1.015.511 1.514.511.387.001.656-.08.826-.206.166-.129.239-.271.243-.523-.002-.135-.034-.204-.105-.275-.095-.09-.217-.165-.374-.223-.136-.05-.321-.107-.553-.167l-.182-.046c-.433-.11-.788-.22-1.07-.334-.304-.123-.568-.317-.782-.572-.234-.28-.343-.646-.342-1.06-.003-.52.197-.988.573-1.348.28-.27.63-.452 1.032-.556l.205-.045v-.39c0-.158.051-.324.167-.443.113-.12.28-.18.438-.178zm-29.84 1.43c.39 0 .708.318.708.709v1.417h1.417c.39 0 .708.317.708.708 0 .391-.317.708-.708.708H3.875v1.417c0 .391-.317.708-.708.708-.391 0-.709-.317-.709-.708v-1.417H1.042c-.391 0-.709-.317-.709-.708 0-.391.318-.708.709-.708h1.416V12c0-.391.318-.708.709-.708zM12.833 8c.391 0 .709.317.709.708v1.417h1.416c.391 0 .709.317.709.708 0 .391-.318.709-.709.709h-1.416v1.416c0 .391-.318.709-.709.709-.39 0-.708-.318-.708-.709v-1.416h-1.417c-.39 0-.708-.318-.708-.709 0-.39.317-.708.708-.708h1.417V8.708c0-.39.317-.708.708-.708zm9-5c.391 0 .709.317.709.708v1.417h1.416c.391 0 .709.317.709.708 0 .391-.318.709-.709.709h-1.416v1.416c0 .391-.318.709-.709.709-.39 0-.708-.318-.708-.709V6.542h-1.417c-.39 0-.708-.318-.708-.709 0-.39.317-.708.708-.708h1.417V3.708c0-.39.317-.708.708-.708zm22-3c.391 0 .709.317.709.708v1.417h1.416c.391 0 .709.317.709.708 0 .391-.318.709-.709.709h-1.416v1.416c0 .391-.318.709-.709.709-.39 0-.708-.318-.708-.709V3.542h-1.417c-.39 0-.708-.318-.708-.709 0-.39.317-.708.708-.708h1.417V.708c0-.39.317-.708.708-.708z"/>
</svg>
